<svg xmlns="http://www.w3.org/2000/svg" width="18" height="18" viewBox="0 0 18 18">
  <path id="Path_205" data-name="Path 205" d="M4.769,84.462a3.462,3.462,0,1,1,6.769,1.024,7.623,7.623,0,0,0-3.631,2.422A3.462,3.462,0,0,1,4.769,84.462Zm3.462-2.077a2.077,2.077,0,1,0,2.077,2.077A2.077,2.077,0,0,0,8.231,82.385ZM13.769,99a6.231,6.231,0,1,0-6.231-6.231A6.231,6.231,0,0,0,13.769,99Zm3.259-8.8a.693.693,0,0,1,0,.979l-4.154,4.154a.692.692,0,0,1-.979,0L10.51,93.951a.692.692,0,0,1,.979-.979l.9.9L16.049,90.2A.693.693,0,0,1,17.028,90.2Zm-10.044-.9H4.077A2.435,2.435,0,0,0,2,91.731v.346c0,2.4,2.152,5.04,5.844,5.476a7.616,7.616,0,0,1-1-1.609,4.453,4.453,0,0,1-3.46-3.867v-.346a1.334,1.334,0,0,1,.3-.758c.208-.259.367-.281.389-.281H6.441A7.566,7.566,0,0,1,6.984,89.308Z" transform="translate(-2 -81)" fill="#2c2c2c"/>
</svg>
