<svg xmlns="http://www.w3.org/2000/svg" width="18" height="18.001" viewBox="0 0 18 18.001">
  <path id="Path_208" data-name="Path 208" d="M62.95,110.307l.1.209.786,2.091a.606.606,0,0,0,.356.356l2.019.757a1.829,1.829,0,0,1,1.126,2.175l-.057.177-.939,2.077a.611.611,0,0,0,0,.5l.892,1.963a1.828,1.828,0,0,1-.742,2.334l-.208.1-2.091.787a.606.606,0,0,0-.356.356l-.757,2.019a1.827,1.827,0,0,1-2.174,1.127l-.178-.057-2.077-.94a.613.613,0,0,0-.5,0l-1.963.892a1.828,1.828,0,0,1-2.334-.741l-.1-.209-.786-2.091a.606.606,0,0,0-.356-.356l-2.019-.757a1.829,1.829,0,0,1-1.126-2.175l.057-.177.939-2.077a.61.61,0,0,0,0-.5l-.892-1.963a1.827,1.827,0,0,1,.742-2.334l.208-.1,2.091-.787a.606.606,0,0,0,.356-.356l.757-2.019a1.827,1.827,0,0,1,2.174-1.127l.178.057,2.077.938a.6.6,0,0,0,.5,0l1.963-.891A1.828,1.828,0,0,1,62.95,110.307Zm-8.09.708-.757,2.02a1.827,1.827,0,0,1-1.069,1.068l-2.019.758-.134.07a.61.61,0,0,0-.207.753l.892,1.963a1.826,1.826,0,0,1,0,1.511l-.9,1.982-.037.125a.609.609,0,0,0,.386.678l2.019.758a1.823,1.823,0,0,1,1.069,1.068l.757,2.019.07.134a.609.609,0,0,0,.752.207l1.963-.892a1.827,1.827,0,0,1,1.512,0l1.982.9.125.037a.608.608,0,0,0,.678-.386l.757-2.019a1.823,1.823,0,0,1,1.069-1.068l2.019-.758.134-.07a.61.61,0,0,0,.207-.753l-.892-1.963a1.826,1.826,0,0,1,0-1.511l.9-1.982.037-.125a.609.609,0,0,0-.386-.678l-2.019-.758a1.827,1.827,0,0,1-1.069-1.068l-.757-2.02-.07-.134a.608.608,0,0,0-.752-.206l-1.963.892a1.827,1.827,0,0,1-1.512,0l-1.963-.892-.038-.016A.611.611,0,0,0,54.86,111.015Zm2.148,9.224,4.345-4.966a.609.609,0,0,1,.988.7l-.071.1L57.5,121.53a.609.609,0,0,1-.789.11l-.1-.08-2.046-2.046a.609.609,0,0,1,.766-.94l.1.078,1.586,1.586,4.345-4.966Z" transform="translate(-49.401 -109.401)" fill="#2c2c2c"/>
</svg>
