<svg xmlns="http://www.w3.org/2000/svg" width="18" height="21" viewBox="0 0 18 21">
  <path id="Path_207" data-name="Path 207" d="M72.75,70.75A.75.75,0,0,1,73.5,70h6a.749.749,0,0,1,.607.309A4.509,4.509,0,0,0,78.4,71.5H73.5A.75.75,0,0,1,72.75,70.75Zm4.5,3.75H73.5a.75.75,0,0,0,0,1.5h4.006A4.5,4.5,0,0,1,77.25,74.5Zm-1.639,9H71.25a.75.75,0,0,1-.75-.75v-15a.75.75,0,0,1,.75-.75h10.5a.75.75,0,0,1,.75.75v2.312a4.472,4.472,0,0,1,1.5.54V67.75a2.25,2.25,0,0,0-2.25-2.25v-.75a.75.75,0,0,0-1.5,0v.75h-3v-.75a.75.75,0,0,0-1.5,0v.75h-3v-.75a.75.75,0,0,0-1.5,0v.75A2.25,2.25,0,0,0,69,67.75v15A2.25,2.25,0,0,0,71.25,85h5.379q.089,0,.177-.007A5.289,5.289,0,0,1,75.611,83.5Zm2.7.746A3.734,3.734,0,0,1,76.5,81.063a1.956,1.956,0,0,1,1.814-1.923c.059,0,.118-.008.179-.008h6.515A1.963,1.963,0,0,1,87,81.063a3.782,3.782,0,0,1-2.937,3.646l-.124.03a9.307,9.307,0,0,1-4.378,0l-.124-.03A3.938,3.938,0,0,1,78.315,84.246ZM84,76.484A3,3,0,0,1,78.75,74.5h0A3,3,0,1,1,84,76.484ZM72.75,79.75A.75.75,0,0,1,73.5,79h.75a.75.75,0,0,1,0,1.5H73.5A.75.75,0,0,1,72.75,79.75Z" transform="translate(-69 -64)" fill="#2c2c2c"/>
</svg>
