<svg xmlns="http://www.w3.org/2000/svg" width="31.035" height="31.169" viewBox="0 0 31.035 31.169">
  <g id="Group_101" data-name="Group 101" transform="translate(-1084.85 -23.415)">
    <path id="Path_211" data-name="Path 211" d="M8.917,25A2.917,2.917,0,0,0,6,27.917V33.75a2.917,2.917,0,0,0,2.917,2.917H14.75a2.917,2.917,0,0,0,2.917-2.917V27.917A2.917,2.917,0,0,0,14.75,25ZM16.4,27.333H7.266a1.751,1.751,0,0,1,1.65-1.167H14.75A1.751,1.751,0,0,1,16.4,27.333ZM7.167,28.5H16.5v5.25a1.75,1.75,0,0,1-1.75,1.75H8.917a1.75,1.75,0,0,1-1.75-1.75ZM11.25,39a2.912,2.912,0,0,1-2.334-1.167h6.417a3.5,3.5,0,0,0,3.5-3.5V27.916A2.912,2.912,0,0,1,20,30.25v4.083A4.667,4.667,0,0,1,15.334,39Z" transform="translate(1086.787 7)" fill="#2c2c2c"/>
    <path id="Path_210" data-name="Path 210" d="M26.691,2.281A.961.961,0,0,0,25.332,3.64l2.2,2.2H5.842A3.842,3.842,0,0,0,2,9.684V22.17a.96.96,0,1,0,1.921,0V9.684A1.921,1.921,0,0,1,5.842,7.763H27.534l-2.2,2.2a.961.961,0,0,0,1.358,1.358l3.842-3.842a.961.961,0,0,0,0-1.358Zm2.2,24.69a1.921,1.921,0,0,0,1.921-1.921V12.565a.96.96,0,0,1,1.921,0V25.051a3.842,3.842,0,0,1-3.842,3.842H7.2l2.2,2.2a.961.961,0,1,1-1.358,1.358L4.2,28.611a.961.961,0,0,1,0-1.358l3.842-3.842A.961.961,0,0,1,9.4,24.77l-2.2,2.2Z" transform="translate(1083 21.633)" fill="#2c2c2c" stroke="#fff" stroke-width="0.3"/>
  </g>
</svg>
