<svg xmlns="http://www.w3.org/2000/svg" width="18" height="18.692" viewBox="0 0 18 18.692">
  <path id="Path_204" data-name="Path 204" d="M38.846,18.748C35.153,18.327,33,15.765,33,13.269v-.692A2.077,2.077,0,0,1,35.077,10.5h2.907a7.568,7.568,0,0,0-.544,1.385H35.077a.692.692,0,0,0-.692.692v.692c0,1.562,1.221,3.23,3.465,3.876A7.622,7.622,0,0,0,38.846,18.748ZM43.559,6.442A3.808,3.808,0,1,0,38.991,9a7.661,7.661,0,0,1,1.492-1.335,2.425,2.425,0,1,1,1.158-.65A7.562,7.562,0,0,1,43.559,6.442Zm1.21,13.751a6.231,6.231,0,1,0-6.231-6.231A6.231,6.231,0,0,0,44.769,20.192Zm-2.937-6.923h5.874a.692.692,0,1,1,0,1.385H41.832a.692.692,0,0,1,0-1.385Z" transform="translate(-33 -1.5)" fill="#212121"/>
</svg>
