<svg xmlns="http://www.w3.org/2000/svg" width="19.56" height="20.312" viewBox="0 0 19.56 20.312">
  <path id="Person_Add" data-name="Person Add" d="M8.352,20.243C4.339,19.786,2,17,2,14.289v-.752A2.257,2.257,0,0,1,4.257,11.28H7.416a8.22,8.22,0,0,0-.591,1.5H4.257a.752.752,0,0,0-.752.752v.752c0,1.7,1.327,3.51,3.765,4.212A8.278,8.278,0,0,0,8.352,20.243ZM13.474,6.87A4.138,4.138,0,1,0,8.511,9.651,8.322,8.322,0,0,1,10.132,8.2a2.635,2.635,0,1,1,1.258-.706A8.215,8.215,0,0,1,13.474,6.87Zm1.315,14.942a6.771,6.771,0,1,0-6.771-6.771A6.771,6.771,0,0,0,14.789,21.812Zm0-10.532a.752.752,0,0,1,.752.752v2.257H17.8a.752.752,0,1,1,0,1.5H15.542v2.257a.752.752,0,1,1-1.5,0V15.794H11.78a.752.752,0,1,1,0-1.5h2.257V12.032A.752.752,0,0,1,14.789,11.28Z" transform="translate(-2 -1.5)" fill="#2c2c2c"/>
</svg>
