<svg xmlns="http://www.w3.org/2000/svg" width="18.571" height="20" viewBox="0 0 18.571 20">
  <g id="Group_197" data-name="Group 197" transform="translate(-1060 -800)">
    <path id="Document_Add" data-name="Document Add" d="M8.143,1A2.857,2.857,0,0,0,5.286,3.857V7.01a7.828,7.828,0,0,1,1.429-.264V3.857A1.429,1.429,0,0,1,8.143,2.429h4.286V6a2.143,2.143,0,0,0,2.143,2.143h3.571v10a1.429,1.429,0,0,1-1.429,1.429H13.49A7.9,7.9,0,0,1,11.947,21h4.767a2.857,2.857,0,0,0,2.857-2.857V7.306a2.143,2.143,0,0,0-.628-1.515L14.781,1.628A2.143,2.143,0,0,0,13.265,1Zm9.7,5.714H14.571A.714.714,0,0,1,13.857,6V2.724Z" transform="translate(1059 799)" fill="#2c2c2c"/>
    <path id="Exclusion_2" data-name="Exclusion 2" d="M6.5,13A6.5,6.5,0,1,1,13,6.5,6.508,6.508,0,0,1,6.5,13ZM8.465,3.034a1.258,1.258,0,0,0-.889.366L4.132,6.847a2.252,2.252,0,0,0-.59,1.037L3.3,8.858a.479.479,0,0,0,.087.417.487.487,0,0,0,.386.191.5.5,0,0,0,.12-.015l.973-.244A2.252,2.252,0,0,0,5.905,8.62L9.349,5.173a1.253,1.253,0,0,0-.884-2.139Z" transform="translate(1060 807)" fill="#2c2c2c"/>
  </g>
</svg>