<svg xmlns="http://www.w3.org/2000/svg" width="18.571" height="20" viewBox="0 0 18.571 20">
  <path id="Document_Add" data-name="Document Add" d="M8.143,1A2.857,2.857,0,0,0,5.286,3.857V7.01a7.828,7.828,0,0,1,1.429-.264V3.857A1.429,1.429,0,0,1,8.143,2.429h4.286V6a2.143,2.143,0,0,0,2.143,2.143h3.571v10a1.429,1.429,0,0,1-1.429,1.429H13.49A7.9,7.9,0,0,1,11.947,21h4.767a2.857,2.857,0,0,0,2.857-2.857V7.306a2.143,2.143,0,0,0-.628-1.515L14.781,1.628A2.143,2.143,0,0,0,13.265,1Zm9.7,5.714H14.571A.714.714,0,0,1,13.857,6V2.724Zm-3.99,7.857A6.429,6.429,0,1,1,7.429,8.143,6.429,6.429,0,0,1,13.857,14.571ZM8.143,11.714a.714.714,0,1,0-1.429,0v2.143H4.571a.714.714,0,1,0,0,1.429H6.714v2.143a.714.714,0,0,0,1.429,0V15.286h2.143a.714.714,0,1,0,0-1.429H8.143Z" transform="translate(-1 -1)" fill="#2c2c2c"/>
</svg>
