<svg xmlns="http://www.w3.org/2000/svg" width="42.794" height="42.794" viewBox="0 0 42.794 42.794">
  <g id="Group_82" data-name="Group 82" transform="translate(-686 -88)">
    <path id="Path_1" data-name="Path 1" d="M48.778,51.477a2.393,2.393,0,0,1-.387-2.838,4.4,4.4,0,0,0,.652-2.143c0-1.319-1.519-3.262-3.662-3.681-1.3-.247-2.74-.252-3.854-.4-3.1-.419-3.989-1.7-3.989-2.922,0-1.486,1.458-1.9,2.074-1.976,2.535-.317,5.638,1.435,7.879,4.688a10.309,10.309,0,0,0-7.483-7.125c3.4.266,5.55,1.817,7.772,4.683a9.676,9.676,0,0,0-8.853-6.77c-2.964-.172-5.293.568-7.139,2.847-.093.116-.242.312-.34.466a2.485,2.485,0,0,0-.2.326,4.228,4.228,0,0,0-.2.429,10.917,10.917,0,0,0-.433,1.673A9.913,9.913,0,0,1,30,40.69a1.449,1.449,0,0,0,.755.582,1.193,1.193,0,0,0,.051.932c.154.438.489.741.531,1.277A2.936,2.936,0,0,1,31,44.674s.96-.624,1.123-1.216c.14-.494-.093-.741-.028-1.244a1.025,1.025,0,0,1,.415-.722.806.806,0,0,1,1.216.876c-.135.629-.736,1.733-1.193,2.922-.671,1.705-.326,2.875.988,4.469-.075,2.409-.811,5.126-.727,5.769.037.284.224.382.513.405h1.5l.233-.9c1.142-5.168,4.394-6.472,7.539-6.058,2.055.261,4.417,2.553,4.194,5.946,0,.308-.126.531-.042.718a.564.564,0,0,0,.559.312h1.6l.294-.387A9.253,9.253,0,0,1,48.778,51.477Zm-16.4-12.632a.466.466,0,1,1,.18-.056A.466.466,0,0,1,32.381,38.845Z" transform="translate(667.863 64.308)"/>
    <path id="Path_2" data-name="Path 2" d="M25.937,55.854a21.434,21.434,0,1,1,15.116-6.275A21.4,21.4,0,0,1,25.937,55.854Zm0-39.4a18.028,18.028,0,1,0,12.731,5.282A18.009,18.009,0,0,0,25.937,16.452Z" transform="translate(681.46 74.94)"/>
  </g>
</svg>
