<svg xmlns="http://www.w3.org/2000/svg" width="10" height="10" viewBox="0 0 10 10">
  <path id="Calendar" d="M3,5.5a.5.5,0,1,1,.5.5A.5.5,0,0,1,3,5.5ZM3.5,7a.5.5,0,1,0,.5.5A.5.5,0,0,0,3.5,7ZM5,5.5a.5.5,0,1,1,.5.5A.5.5,0,0,1,5,5.5ZM5.5,7a.5.5,0,1,0,.5.5A.5.5,0,0,0,5.5,7ZM7,5.5a.5.5,0,1,1,.5.5A.5.5,0,0,1,7,5.5Zm-6-2A2.5,2.5,0,0,1,3.5,1h5A2.5,2.5,0,0,1,11,3.5v5A2.5,2.5,0,0,1,8.5,11h-5A2.5,2.5,0,0,1,1,8.5ZM3.5,2A1.5,1.5,0,0,0,2.085,3H9.915A1.5,1.5,0,0,0,8.5,2ZM10,4H2V8.5A1.5,1.5,0,0,0,3.5,10h5A1.5,1.5,0,0,0,10,8.5Z" transform="translate(-1 -1)" fill="#4d4d4d"/>
</svg>
