<svg xmlns="http://www.w3.org/2000/svg" width="15.781" height="12.99" viewBox="0 0 15.781 12.99">
  <g id="Group_368" data-name="Group 368" transform="translate(-1156.219 -493.674)">
    <path id="Path_460" data-name="Path 460" d="M34.612,48H45.944a.528.528,0,0,1,.39.882L42,53.653a.528.528,0,0,0-.137.355v3.734a.528.528,0,0,1-.235.439l-2.11,1.407a.528.528,0,0,1-.82-.439V54.007a.528.528,0,0,0-.137-.355l-4.336-4.77a.528.528,0,0,1,.39-.882Z" transform="translate(1122.801 446.324)" fill="none" stroke="#1c1c1c" stroke-linecap="round" stroke-linejoin="round" stroke-width="1.3"/>
    <g id="Ellipse_65" data-name="Ellipse 65" transform="translate(1162 496)" fill="#1c1c1c" stroke="#fff" stroke-width="1">
      <circle cx="5" cy="5" r="5" stroke="none"/>
      <circle cx="5" cy="5" r="4.5" fill="none"/>
    </g>
    <path id="_0160413fddd75d9ff40fd0d028f9569e" data-name="0160413fddd75d9ff40fd0d028f9569e" d="M5.927,5.639,7.22,4.348a.206.206,0,1,0-.292-.292L5.638,5.35,4.346,4.056a.206.206,0,0,0-.292.292L5.348,5.639,4.055,6.93a.206.206,0,1,0,.292.292L5.638,5.929,6.929,7.222A.206.206,0,1,0,7.22,6.93Z" transform="translate(1161.362 495.361)" fill="#fff" stroke="#fff" stroke-width="0.5"/>
  </g>
</svg>
