<svg xmlns="http://www.w3.org/2000/svg" width="17.647" height="17.647" viewBox="0 0 17.647 17.647">
  <g id="Group_26" data-name="Group 26" transform="translate(-1182 -673)">
    <path id="Window_Edit" data-name="Window Edit" d="M16.511,7.574a1.967,1.967,0,0,0-2.782,0L8.323,12.98A3.5,3.5,0,0,0,7.4,14.606l-.382,1.527a.768.768,0,0,0,.932.931l1.527-.382a3.5,3.5,0,0,0,1.626-.921l5.405-5.405A1.967,1.967,0,0,0,16.511,7.574Z" transform="translate(1178.781 669.781)" fill="#222"/>
    <path id="Resize" d="M5.309,2A3.309,3.309,0,0,0,2,5.309v3.86a.551.551,0,0,0,1.1,0V5.309A2.206,2.206,0,0,1,5.309,3.1h3.86a.551.551,0,0,0,0-1.1Zm7.169,0a.551.551,0,1,0,0,1.1h3.86a2.206,2.206,0,0,1,2.206,2.206v3.86a.551.551,0,1,0,1.1,0V5.309A3.309,3.309,0,0,0,16.338,2ZM2.551,11.926a.551.551,0,0,1,.551.551v3.86a2.206,2.206,0,0,0,2.206,2.206h3.86a.551.551,0,0,1,0,1.1H5.309A3.309,3.309,0,0,1,2,16.338v-3.86A.551.551,0,0,1,2.551,11.926Zm17.1.551a.551.551,0,1,0-1.1,0v3.86a2.206,2.206,0,0,1-2.206,2.206h-3.86a.551.551,0,0,0,0,1.1h3.86a3.309,3.309,0,0,0,3.309-3.309Z" transform="translate(1180 671)" fill="#212121"/>
  </g>
</svg>
