<svg xmlns="http://www.w3.org/2000/svg" width="14.758" height="15.474" viewBox="0 0 14.758 15.474">
  <g id="Group_25" data-name="Group 25" transform="translate(-1265.063 -673)">
    <path id="Person_Add" data-name="Person Add" d="M6.839,15.779C3.782,15.431,2,13.31,2,11.243V10.67A1.719,1.719,0,0,1,3.719,8.951H6.126a6.263,6.263,0,0,0-.45,1.146H3.719a.573.573,0,0,0-.573.573v.573a3.585,3.585,0,0,0,2.868,3.209A6.306,6.306,0,0,0,6.839,15.779Zm3.9-10.188A3.153,3.153,0,1,0,6.96,7.709,6.34,6.34,0,0,1,8.2,6.6a2.007,2.007,0,1,1,.959-.538A6.259,6.259,0,0,1,10.741,5.591ZM6.585,11.817Z" transform="translate(1263.063 671.5)" fill="#2c2c2c"/>
    <path id="Exclusion_1" data-name="Exclusion 1" d="M5.16,10.315a5.158,5.158,0,1,1,5.158-5.156A5.164,5.164,0,0,1,5.16,10.315ZM6.717,2.407a1,1,0,0,0-.705.291L3.278,5.433a1.787,1.787,0,0,0-.468.823l-.191.772a.38.38,0,0,0,.069.331A.387.387,0,0,0,3,7.511a.4.4,0,0,0,.1-.012l.772-.194a1.787,1.787,0,0,0,.823-.465L7.418,4.1a.994.994,0,0,0-.7-1.7Z" transform="translate(1269.503 678.158)" fill="#2c2c2c"/>
  </g>
</svg>
